<mxfile host="app.diagrams.net" agent="Mozilla/5.0 (Macintosh; Intel Mac OS X 10_15_7) AppleWebKit/537.36 (KHTML, like Gecko) Chrome/130.0.0.0 Safari/537.36" version="24.8.2">
  <diagram name="Page-1" id="sR-__b0y3glcxUTjMr3D">
    <mxGraphModel dx="6771" dy="3474" grid="1" gridSize="10" guides="1" tooltips="1" connect="1" arrows="1" fold="1" page="1" pageScale="1" pageWidth="1654" pageHeight="1169" math="0" shadow="0">
      <root>
        <mxCell id="0" />
        <mxCell id="1" parent="0" />
        <mxCell id="b0EkpMGophOQuvT-ORNH-5" value="" style="rounded=0;whiteSpace=wrap;html=1;dashed=1;" vertex="1" parent="1">
          <mxGeometry x="50" y="900" width="150" height="210" as="geometry" />
        </mxCell>
        <mxCell id="b0EkpMGophOQuvT-ORNH-1" value="D3" style="ellipse;whiteSpace=wrap;html=1;aspect=fixed;" vertex="1" parent="1">
          <mxGeometry x="105" y="985" width="40" height="40" as="geometry" />
        </mxCell>
        <mxCell id="b0EkpMGophOQuvT-ORNH-2" value="D2" style="ellipse;whiteSpace=wrap;html=1;aspect=fixed;" vertex="1" parent="1">
          <mxGeometry x="145" y="925" width="40" height="40" as="geometry" />
        </mxCell>
        <mxCell id="b0EkpMGophOQuvT-ORNH-3" value="D1" style="ellipse;whiteSpace=wrap;html=1;aspect=fixed;" vertex="1" parent="1">
          <mxGeometry x="65" y="925" width="40" height="40" as="geometry" />
        </mxCell>
        <mxCell id="b0EkpMGophOQuvT-ORNH-4" value="QA1" style="whiteSpace=wrap;html=1;aspect=fixed;" vertex="1" parent="1">
          <mxGeometry x="105" y="1055" width="40" height="40" as="geometry" />
        </mxCell>
        <mxCell id="b0EkpMGophOQuvT-ORNH-6" value="" style="rounded=0;whiteSpace=wrap;html=1;dashed=1;" vertex="1" parent="1">
          <mxGeometry x="250" y="900" width="150" height="210" as="geometry" />
        </mxCell>
        <mxCell id="b0EkpMGophOQuvT-ORNH-7" value="D3" style="ellipse;whiteSpace=wrap;html=1;aspect=fixed;" vertex="1" parent="1">
          <mxGeometry x="305" y="985" width="40" height="40" as="geometry" />
        </mxCell>
        <mxCell id="b0EkpMGophOQuvT-ORNH-8" value="D2" style="ellipse;whiteSpace=wrap;html=1;aspect=fixed;" vertex="1" parent="1">
          <mxGeometry x="345" y="925" width="40" height="40" as="geometry" />
        </mxCell>
        <mxCell id="b0EkpMGophOQuvT-ORNH-9" value="D1" style="ellipse;whiteSpace=wrap;html=1;aspect=fixed;" vertex="1" parent="1">
          <mxGeometry x="265" y="925" width="40" height="40" as="geometry" />
        </mxCell>
        <mxCell id="b0EkpMGophOQuvT-ORNH-10" value="QA1" style="whiteSpace=wrap;html=1;aspect=fixed;" vertex="1" parent="1">
          <mxGeometry x="305" y="1055" width="40" height="40" as="geometry" />
        </mxCell>
        <mxCell id="b0EkpMGophOQuvT-ORNH-11" value="" style="rounded=0;whiteSpace=wrap;html=1;dashed=1;" vertex="1" parent="1">
          <mxGeometry x="450" y="900" width="150" height="210" as="geometry" />
        </mxCell>
        <mxCell id="b0EkpMGophOQuvT-ORNH-12" value="D3" style="ellipse;whiteSpace=wrap;html=1;aspect=fixed;" vertex="1" parent="1">
          <mxGeometry x="505" y="985" width="40" height="40" as="geometry" />
        </mxCell>
        <mxCell id="b0EkpMGophOQuvT-ORNH-13" value="D2" style="ellipse;whiteSpace=wrap;html=1;aspect=fixed;" vertex="1" parent="1">
          <mxGeometry x="545" y="925" width="40" height="40" as="geometry" />
        </mxCell>
        <mxCell id="b0EkpMGophOQuvT-ORNH-14" value="D1" style="ellipse;whiteSpace=wrap;html=1;aspect=fixed;" vertex="1" parent="1">
          <mxGeometry x="465" y="925" width="40" height="40" as="geometry" />
        </mxCell>
        <mxCell id="b0EkpMGophOQuvT-ORNH-15" value="QA1" style="whiteSpace=wrap;html=1;aspect=fixed;" vertex="1" parent="1">
          <mxGeometry x="505" y="1055" width="40" height="40" as="geometry" />
        </mxCell>
        <mxCell id="b0EkpMGophOQuvT-ORNH-17" value="" style="triangle;whiteSpace=wrap;html=1;rotation=-90;" vertex="1" parent="1">
          <mxGeometry x="297.5" y="800" width="37.5" height="42.5" as="geometry" />
        </mxCell>
        <mxCell id="b0EkpMGophOQuvT-ORNH-18" value="Em1" style="text;html=1;align=center;verticalAlign=middle;whiteSpace=wrap;rounded=0;" vertex="1" parent="1">
          <mxGeometry x="340" y="800" width="60" height="30" as="geometry" />
        </mxCell>
        <mxCell id="b0EkpMGophOQuvT-ORNH-22" value="" style="rounded=0;whiteSpace=wrap;html=1;dashed=1;" vertex="1" parent="1">
          <mxGeometry x="670" y="910" width="150" height="210" as="geometry" />
        </mxCell>
        <mxCell id="b0EkpMGophOQuvT-ORNH-23" value="D3" style="ellipse;whiteSpace=wrap;html=1;aspect=fixed;" vertex="1" parent="1">
          <mxGeometry x="725" y="995" width="40" height="40" as="geometry" />
        </mxCell>
        <mxCell id="b0EkpMGophOQuvT-ORNH-24" value="D2" style="ellipse;whiteSpace=wrap;html=1;aspect=fixed;" vertex="1" parent="1">
          <mxGeometry x="765" y="935" width="40" height="40" as="geometry" />
        </mxCell>
        <mxCell id="b0EkpMGophOQuvT-ORNH-25" value="D1" style="ellipse;whiteSpace=wrap;html=1;aspect=fixed;" vertex="1" parent="1">
          <mxGeometry x="685" y="935" width="40" height="40" as="geometry" />
        </mxCell>
        <mxCell id="b0EkpMGophOQuvT-ORNH-26" value="QA1" style="whiteSpace=wrap;html=1;aspect=fixed;" vertex="1" parent="1">
          <mxGeometry x="725" y="1065" width="40" height="40" as="geometry" />
        </mxCell>
        <mxCell id="b0EkpMGophOQuvT-ORNH-27" value="" style="rounded=0;whiteSpace=wrap;html=1;dashed=1;" vertex="1" parent="1">
          <mxGeometry x="870" y="910" width="150" height="210" as="geometry" />
        </mxCell>
        <mxCell id="b0EkpMGophOQuvT-ORNH-28" value="D3" style="ellipse;whiteSpace=wrap;html=1;aspect=fixed;" vertex="1" parent="1">
          <mxGeometry x="925" y="995" width="40" height="40" as="geometry" />
        </mxCell>
        <mxCell id="b0EkpMGophOQuvT-ORNH-29" value="D2" style="ellipse;whiteSpace=wrap;html=1;aspect=fixed;" vertex="1" parent="1">
          <mxGeometry x="965" y="935" width="40" height="40" as="geometry" />
        </mxCell>
        <mxCell id="b0EkpMGophOQuvT-ORNH-30" value="D1" style="ellipse;whiteSpace=wrap;html=1;aspect=fixed;" vertex="1" parent="1">
          <mxGeometry x="885" y="935" width="40" height="40" as="geometry" />
        </mxCell>
        <mxCell id="b0EkpMGophOQuvT-ORNH-31" value="QA1" style="whiteSpace=wrap;html=1;aspect=fixed;" vertex="1" parent="1">
          <mxGeometry x="925" y="1065" width="40" height="40" as="geometry" />
        </mxCell>
        <mxCell id="b0EkpMGophOQuvT-ORNH-32" value="" style="rounded=0;whiteSpace=wrap;html=1;dashed=1;" vertex="1" parent="1">
          <mxGeometry x="1070" y="910" width="150" height="210" as="geometry" />
        </mxCell>
        <mxCell id="b0EkpMGophOQuvT-ORNH-33" value="D3" style="ellipse;whiteSpace=wrap;html=1;aspect=fixed;" vertex="1" parent="1">
          <mxGeometry x="1125" y="995" width="40" height="40" as="geometry" />
        </mxCell>
        <mxCell id="b0EkpMGophOQuvT-ORNH-34" value="D2" style="ellipse;whiteSpace=wrap;html=1;aspect=fixed;" vertex="1" parent="1">
          <mxGeometry x="1165" y="935" width="40" height="40" as="geometry" />
        </mxCell>
        <mxCell id="b0EkpMGophOQuvT-ORNH-35" value="D1" style="ellipse;whiteSpace=wrap;html=1;aspect=fixed;" vertex="1" parent="1">
          <mxGeometry x="1085" y="935" width="40" height="40" as="geometry" />
        </mxCell>
        <mxCell id="b0EkpMGophOQuvT-ORNH-36" value="QA1" style="whiteSpace=wrap;html=1;aspect=fixed;" vertex="1" parent="1">
          <mxGeometry x="1125" y="1065" width="40" height="40" as="geometry" />
        </mxCell>
        <mxCell id="b0EkpMGophOQuvT-ORNH-37" value="" style="triangle;whiteSpace=wrap;html=1;rotation=-90;" vertex="1" parent="1">
          <mxGeometry x="917.5" y="810" width="37.5" height="42.5" as="geometry" />
        </mxCell>
        <mxCell id="b0EkpMGophOQuvT-ORNH-38" value="Em1" style="text;html=1;align=center;verticalAlign=middle;whiteSpace=wrap;rounded=0;" vertex="1" parent="1">
          <mxGeometry x="960" y="810" width="60" height="30" as="geometry" />
        </mxCell>
        <mxCell id="b0EkpMGophOQuvT-ORNH-42" value="" style="rounded=0;whiteSpace=wrap;html=1;dashed=1;" vertex="1" parent="1">
          <mxGeometry x="1280" y="900" width="150" height="210" as="geometry" />
        </mxCell>
        <mxCell id="b0EkpMGophOQuvT-ORNH-43" value="D3" style="ellipse;whiteSpace=wrap;html=1;aspect=fixed;" vertex="1" parent="1">
          <mxGeometry x="1335" y="985" width="40" height="40" as="geometry" />
        </mxCell>
        <mxCell id="b0EkpMGophOQuvT-ORNH-44" value="D2" style="ellipse;whiteSpace=wrap;html=1;aspect=fixed;" vertex="1" parent="1">
          <mxGeometry x="1375" y="925" width="40" height="40" as="geometry" />
        </mxCell>
        <mxCell id="b0EkpMGophOQuvT-ORNH-45" value="D1" style="ellipse;whiteSpace=wrap;html=1;aspect=fixed;" vertex="1" parent="1">
          <mxGeometry x="1295" y="925" width="40" height="40" as="geometry" />
        </mxCell>
        <mxCell id="b0EkpMGophOQuvT-ORNH-46" value="QA1" style="whiteSpace=wrap;html=1;aspect=fixed;" vertex="1" parent="1">
          <mxGeometry x="1335" y="1055" width="40" height="40" as="geometry" />
        </mxCell>
        <mxCell id="b0EkpMGophOQuvT-ORNH-47" value="" style="rounded=0;whiteSpace=wrap;html=1;dashed=1;" vertex="1" parent="1">
          <mxGeometry x="1480" y="900" width="150" height="210" as="geometry" />
        </mxCell>
        <mxCell id="b0EkpMGophOQuvT-ORNH-48" value="D3" style="ellipse;whiteSpace=wrap;html=1;aspect=fixed;" vertex="1" parent="1">
          <mxGeometry x="1535" y="985" width="40" height="40" as="geometry" />
        </mxCell>
        <mxCell id="b0EkpMGophOQuvT-ORNH-49" value="D2" style="ellipse;whiteSpace=wrap;html=1;aspect=fixed;" vertex="1" parent="1">
          <mxGeometry x="1575" y="925" width="40" height="40" as="geometry" />
        </mxCell>
        <mxCell id="b0EkpMGophOQuvT-ORNH-50" value="D1" style="ellipse;whiteSpace=wrap;html=1;aspect=fixed;" vertex="1" parent="1">
          <mxGeometry x="1495" y="925" width="40" height="40" as="geometry" />
        </mxCell>
        <mxCell id="b0EkpMGophOQuvT-ORNH-51" value="QA1" style="whiteSpace=wrap;html=1;aspect=fixed;" vertex="1" parent="1">
          <mxGeometry x="1535" y="1055" width="40" height="40" as="geometry" />
        </mxCell>
        <mxCell id="b0EkpMGophOQuvT-ORNH-52" value="" style="rounded=0;whiteSpace=wrap;html=1;dashed=1;" vertex="1" parent="1">
          <mxGeometry x="1680" y="900" width="150" height="210" as="geometry" />
        </mxCell>
        <mxCell id="b0EkpMGophOQuvT-ORNH-53" value="D3" style="ellipse;whiteSpace=wrap;html=1;aspect=fixed;" vertex="1" parent="1">
          <mxGeometry x="1735" y="985" width="40" height="40" as="geometry" />
        </mxCell>
        <mxCell id="b0EkpMGophOQuvT-ORNH-54" value="D2" style="ellipse;whiteSpace=wrap;html=1;aspect=fixed;" vertex="1" parent="1">
          <mxGeometry x="1775" y="925" width="40" height="40" as="geometry" />
        </mxCell>
        <mxCell id="b0EkpMGophOQuvT-ORNH-55" value="D1" style="ellipse;whiteSpace=wrap;html=1;aspect=fixed;" vertex="1" parent="1">
          <mxGeometry x="1695" y="925" width="40" height="40" as="geometry" />
        </mxCell>
        <mxCell id="b0EkpMGophOQuvT-ORNH-56" value="QA1" style="whiteSpace=wrap;html=1;aspect=fixed;" vertex="1" parent="1">
          <mxGeometry x="1735" y="1055" width="40" height="40" as="geometry" />
        </mxCell>
        <mxCell id="b0EkpMGophOQuvT-ORNH-57" value="" style="triangle;whiteSpace=wrap;html=1;rotation=-90;" vertex="1" parent="1">
          <mxGeometry x="1527.5" y="800" width="37.5" height="42.5" as="geometry" />
        </mxCell>
        <mxCell id="b0EkpMGophOQuvT-ORNH-58" value="Em1" style="text;html=1;align=center;verticalAlign=middle;whiteSpace=wrap;rounded=0;" vertex="1" parent="1">
          <mxGeometry x="1570" y="800" width="60" height="30" as="geometry" />
        </mxCell>
        <mxCell id="b0EkpMGophOQuvT-ORNH-64" value="Director1" style="rhombus;whiteSpace=wrap;html=1;" vertex="1" parent="1">
          <mxGeometry x="896.25" y="620" width="80" height="80" as="geometry" />
        </mxCell>
        <mxCell id="b0EkpMGophOQuvT-ORNH-65" value="" style="endArrow=classic;startArrow=classic;html=1;rounded=0;exitX=1;exitY=0;exitDx=0;exitDy=0;entryX=0.089;entryY=0.04;entryDx=0;entryDy=0;entryPerimeter=0;" edge="1" parent="1" source="b0EkpMGophOQuvT-ORNH-5" target="b0EkpMGophOQuvT-ORNH-17">
          <mxGeometry width="50" height="50" relative="1" as="geometry">
            <mxPoint x="880" y="700" as="sourcePoint" />
            <mxPoint x="930" y="650" as="targetPoint" />
          </mxGeometry>
        </mxCell>
        <mxCell id="b0EkpMGophOQuvT-ORNH-66" value="" style="endArrow=classic;startArrow=classic;html=1;rounded=0;exitX=0.5;exitY=0;exitDx=0;exitDy=0;entryX=0;entryY=0.5;entryDx=0;entryDy=0;" edge="1" parent="1" source="b0EkpMGophOQuvT-ORNH-6" target="b0EkpMGophOQuvT-ORNH-17">
          <mxGeometry width="50" height="50" relative="1" as="geometry">
            <mxPoint x="880" y="700" as="sourcePoint" />
            <mxPoint x="930" y="650" as="targetPoint" />
          </mxGeometry>
        </mxCell>
        <mxCell id="b0EkpMGophOQuvT-ORNH-67" value="" style="endArrow=classic;startArrow=classic;html=1;rounded=0;exitX=0;exitY=0;exitDx=0;exitDy=0;entryX=0.058;entryY=0.982;entryDx=0;entryDy=0;entryPerimeter=0;" edge="1" parent="1" source="b0EkpMGophOQuvT-ORNH-11" target="b0EkpMGophOQuvT-ORNH-17">
          <mxGeometry width="50" height="50" relative="1" as="geometry">
            <mxPoint x="880" y="700" as="sourcePoint" />
            <mxPoint x="930" y="650" as="targetPoint" />
          </mxGeometry>
        </mxCell>
        <mxCell id="b0EkpMGophOQuvT-ORNH-68" value="" style="endArrow=classic;startArrow=classic;html=1;rounded=0;exitX=1;exitY=0;exitDx=0;exitDy=0;entryX=0.042;entryY=0.04;entryDx=0;entryDy=0;entryPerimeter=0;" edge="1" parent="1" source="b0EkpMGophOQuvT-ORNH-22" target="b0EkpMGophOQuvT-ORNH-37">
          <mxGeometry width="50" height="50" relative="1" as="geometry">
            <mxPoint x="880" y="700" as="sourcePoint" />
            <mxPoint x="930" y="650" as="targetPoint" />
          </mxGeometry>
        </mxCell>
        <mxCell id="b0EkpMGophOQuvT-ORNH-69" value="" style="endArrow=classic;startArrow=classic;html=1;rounded=0;entryX=0;entryY=0.5;entryDx=0;entryDy=0;" edge="1" parent="1" source="b0EkpMGophOQuvT-ORNH-27" target="b0EkpMGophOQuvT-ORNH-37">
          <mxGeometry width="50" height="50" relative="1" as="geometry">
            <mxPoint x="880" y="700" as="sourcePoint" />
            <mxPoint x="930" y="650" as="targetPoint" />
          </mxGeometry>
        </mxCell>
        <mxCell id="b0EkpMGophOQuvT-ORNH-70" value="" style="endArrow=classic;startArrow=classic;html=1;rounded=0;exitX=0;exitY=0;exitDx=0;exitDy=0;entryX=-0.004;entryY=0.938;entryDx=0;entryDy=0;entryPerimeter=0;" edge="1" parent="1" source="b0EkpMGophOQuvT-ORNH-32" target="b0EkpMGophOQuvT-ORNH-37">
          <mxGeometry width="50" height="50" relative="1" as="geometry">
            <mxPoint x="880" y="700" as="sourcePoint" />
            <mxPoint x="960" y="850" as="targetPoint" />
          </mxGeometry>
        </mxCell>
        <mxCell id="b0EkpMGophOQuvT-ORNH-71" value="" style="endArrow=classic;startArrow=classic;html=1;rounded=0;exitX=1;exitY=0;exitDx=0;exitDy=0;entryX=0.093;entryY=0.094;entryDx=0;entryDy=0;entryPerimeter=0;" edge="1" parent="1" source="b0EkpMGophOQuvT-ORNH-42" target="b0EkpMGophOQuvT-ORNH-57">
          <mxGeometry width="50" height="50" relative="1" as="geometry">
            <mxPoint x="870" y="690" as="sourcePoint" />
            <mxPoint x="920" y="640" as="targetPoint" />
          </mxGeometry>
        </mxCell>
        <mxCell id="b0EkpMGophOQuvT-ORNH-72" value="" style="endArrow=classic;startArrow=classic;html=1;rounded=0;exitX=0.5;exitY=0;exitDx=0;exitDy=0;entryX=0;entryY=0.5;entryDx=0;entryDy=0;" edge="1" parent="1" source="b0EkpMGophOQuvT-ORNH-47" target="b0EkpMGophOQuvT-ORNH-57">
          <mxGeometry width="50" height="50" relative="1" as="geometry">
            <mxPoint x="870" y="690" as="sourcePoint" />
            <mxPoint x="920" y="640" as="targetPoint" />
          </mxGeometry>
        </mxCell>
        <mxCell id="b0EkpMGophOQuvT-ORNH-73" value="" style="endArrow=classic;startArrow=classic;html=1;rounded=0;exitX=0;exitY=0;exitDx=0;exitDy=0;entryX=0.2;entryY=0.871;entryDx=0;entryDy=0;entryPerimeter=0;" edge="1" parent="1" source="b0EkpMGophOQuvT-ORNH-52" target="b0EkpMGophOQuvT-ORNH-57">
          <mxGeometry width="50" height="50" relative="1" as="geometry">
            <mxPoint x="870" y="690" as="sourcePoint" />
            <mxPoint x="920" y="640" as="targetPoint" />
          </mxGeometry>
        </mxCell>
        <mxCell id="b0EkpMGophOQuvT-ORNH-74" value="" style="endArrow=classic;startArrow=classic;html=1;rounded=0;exitX=1;exitY=0.5;exitDx=0;exitDy=0;entryX=0;entryY=0.5;entryDx=0;entryDy=0;" edge="1" parent="1" source="b0EkpMGophOQuvT-ORNH-17" target="b0EkpMGophOQuvT-ORNH-64">
          <mxGeometry width="50" height="50" relative="1" as="geometry">
            <mxPoint x="870" y="690" as="sourcePoint" />
            <mxPoint x="920" y="640" as="targetPoint" />
          </mxGeometry>
        </mxCell>
        <mxCell id="b0EkpMGophOQuvT-ORNH-75" value="" style="endArrow=classic;startArrow=classic;html=1;rounded=0;exitX=1;exitY=0.5;exitDx=0;exitDy=0;entryX=0.5;entryY=1;entryDx=0;entryDy=0;" edge="1" parent="1" source="b0EkpMGophOQuvT-ORNH-37" target="b0EkpMGophOQuvT-ORNH-64">
          <mxGeometry width="50" height="50" relative="1" as="geometry">
            <mxPoint x="870" y="690" as="sourcePoint" />
            <mxPoint x="920" y="640" as="targetPoint" />
          </mxGeometry>
        </mxCell>
        <mxCell id="b0EkpMGophOQuvT-ORNH-76" value="" style="endArrow=classic;startArrow=classic;html=1;rounded=0;exitX=1;exitY=0.5;exitDx=0;exitDy=0;entryX=1;entryY=0.5;entryDx=0;entryDy=0;" edge="1" parent="1" source="b0EkpMGophOQuvT-ORNH-57" target="b0EkpMGophOQuvT-ORNH-64">
          <mxGeometry width="50" height="50" relative="1" as="geometry">
            <mxPoint x="870" y="690" as="sourcePoint" />
            <mxPoint x="920" y="640" as="targetPoint" />
          </mxGeometry>
        </mxCell>
        <mxCell id="b0EkpMGophOQuvT-ORNH-77" value="" style="rounded=0;whiteSpace=wrap;html=1;dashed=1;" vertex="1" parent="1">
          <mxGeometry x="1900" y="900" width="150" height="210" as="geometry" />
        </mxCell>
        <mxCell id="b0EkpMGophOQuvT-ORNH-78" value="D3" style="ellipse;whiteSpace=wrap;html=1;aspect=fixed;" vertex="1" parent="1">
          <mxGeometry x="1955" y="985" width="40" height="40" as="geometry" />
        </mxCell>
        <mxCell id="b0EkpMGophOQuvT-ORNH-79" value="D2" style="ellipse;whiteSpace=wrap;html=1;aspect=fixed;" vertex="1" parent="1">
          <mxGeometry x="1995" y="925" width="40" height="40" as="geometry" />
        </mxCell>
        <mxCell id="b0EkpMGophOQuvT-ORNH-80" value="D1" style="ellipse;whiteSpace=wrap;html=1;aspect=fixed;" vertex="1" parent="1">
          <mxGeometry x="1915" y="925" width="40" height="40" as="geometry" />
        </mxCell>
        <mxCell id="b0EkpMGophOQuvT-ORNH-81" value="QA1" style="whiteSpace=wrap;html=1;aspect=fixed;" vertex="1" parent="1">
          <mxGeometry x="1955" y="1055" width="40" height="40" as="geometry" />
        </mxCell>
        <mxCell id="b0EkpMGophOQuvT-ORNH-82" value="" style="rounded=0;whiteSpace=wrap;html=1;dashed=1;" vertex="1" parent="1">
          <mxGeometry x="2100" y="900" width="150" height="210" as="geometry" />
        </mxCell>
        <mxCell id="b0EkpMGophOQuvT-ORNH-83" value="D3" style="ellipse;whiteSpace=wrap;html=1;aspect=fixed;" vertex="1" parent="1">
          <mxGeometry x="2155" y="985" width="40" height="40" as="geometry" />
        </mxCell>
        <mxCell id="b0EkpMGophOQuvT-ORNH-84" value="D2" style="ellipse;whiteSpace=wrap;html=1;aspect=fixed;" vertex="1" parent="1">
          <mxGeometry x="2195" y="925" width="40" height="40" as="geometry" />
        </mxCell>
        <mxCell id="b0EkpMGophOQuvT-ORNH-85" value="D1" style="ellipse;whiteSpace=wrap;html=1;aspect=fixed;" vertex="1" parent="1">
          <mxGeometry x="2115" y="925" width="40" height="40" as="geometry" />
        </mxCell>
        <mxCell id="b0EkpMGophOQuvT-ORNH-86" value="QA1" style="whiteSpace=wrap;html=1;aspect=fixed;" vertex="1" parent="1">
          <mxGeometry x="2155" y="1055" width="40" height="40" as="geometry" />
        </mxCell>
        <mxCell id="b0EkpMGophOQuvT-ORNH-87" value="" style="rounded=0;whiteSpace=wrap;html=1;dashed=1;" vertex="1" parent="1">
          <mxGeometry x="2300" y="900" width="150" height="210" as="geometry" />
        </mxCell>
        <mxCell id="b0EkpMGophOQuvT-ORNH-88" value="D3" style="ellipse;whiteSpace=wrap;html=1;aspect=fixed;" vertex="1" parent="1">
          <mxGeometry x="2355" y="985" width="40" height="40" as="geometry" />
        </mxCell>
        <mxCell id="b0EkpMGophOQuvT-ORNH-89" value="D2" style="ellipse;whiteSpace=wrap;html=1;aspect=fixed;" vertex="1" parent="1">
          <mxGeometry x="2395" y="925" width="40" height="40" as="geometry" />
        </mxCell>
        <mxCell id="b0EkpMGophOQuvT-ORNH-90" value="D1" style="ellipse;whiteSpace=wrap;html=1;aspect=fixed;" vertex="1" parent="1">
          <mxGeometry x="2315" y="925" width="40" height="40" as="geometry" />
        </mxCell>
        <mxCell id="b0EkpMGophOQuvT-ORNH-91" value="QA1" style="whiteSpace=wrap;html=1;aspect=fixed;" vertex="1" parent="1">
          <mxGeometry x="2355" y="1055" width="40" height="40" as="geometry" />
        </mxCell>
        <mxCell id="b0EkpMGophOQuvT-ORNH-92" value="" style="triangle;whiteSpace=wrap;html=1;rotation=-90;" vertex="1" parent="1">
          <mxGeometry x="2147.5" y="800" width="37.5" height="42.5" as="geometry" />
        </mxCell>
        <mxCell id="b0EkpMGophOQuvT-ORNH-93" value="Em1" style="text;html=1;align=center;verticalAlign=middle;whiteSpace=wrap;rounded=0;" vertex="1" parent="1">
          <mxGeometry x="2190" y="800" width="60" height="30" as="geometry" />
        </mxCell>
        <mxCell id="b0EkpMGophOQuvT-ORNH-94" value="" style="rounded=0;whiteSpace=wrap;html=1;dashed=1;" vertex="1" parent="1">
          <mxGeometry x="2520" y="910" width="150" height="210" as="geometry" />
        </mxCell>
        <mxCell id="b0EkpMGophOQuvT-ORNH-95" value="D3" style="ellipse;whiteSpace=wrap;html=1;aspect=fixed;" vertex="1" parent="1">
          <mxGeometry x="2575" y="995" width="40" height="40" as="geometry" />
        </mxCell>
        <mxCell id="b0EkpMGophOQuvT-ORNH-96" value="D2" style="ellipse;whiteSpace=wrap;html=1;aspect=fixed;" vertex="1" parent="1">
          <mxGeometry x="2615" y="935" width="40" height="40" as="geometry" />
        </mxCell>
        <mxCell id="b0EkpMGophOQuvT-ORNH-97" value="D1" style="ellipse;whiteSpace=wrap;html=1;aspect=fixed;" vertex="1" parent="1">
          <mxGeometry x="2535" y="935" width="40" height="40" as="geometry" />
        </mxCell>
        <mxCell id="b0EkpMGophOQuvT-ORNH-98" value="QA1" style="whiteSpace=wrap;html=1;aspect=fixed;" vertex="1" parent="1">
          <mxGeometry x="2575" y="1065" width="40" height="40" as="geometry" />
        </mxCell>
        <mxCell id="b0EkpMGophOQuvT-ORNH-99" value="" style="rounded=0;whiteSpace=wrap;html=1;dashed=1;" vertex="1" parent="1">
          <mxGeometry x="2720" y="910" width="150" height="210" as="geometry" />
        </mxCell>
        <mxCell id="b0EkpMGophOQuvT-ORNH-100" value="D3" style="ellipse;whiteSpace=wrap;html=1;aspect=fixed;" vertex="1" parent="1">
          <mxGeometry x="2775" y="995" width="40" height="40" as="geometry" />
        </mxCell>
        <mxCell id="b0EkpMGophOQuvT-ORNH-101" value="D2" style="ellipse;whiteSpace=wrap;html=1;aspect=fixed;" vertex="1" parent="1">
          <mxGeometry x="2815" y="935" width="40" height="40" as="geometry" />
        </mxCell>
        <mxCell id="b0EkpMGophOQuvT-ORNH-102" value="D1" style="ellipse;whiteSpace=wrap;html=1;aspect=fixed;" vertex="1" parent="1">
          <mxGeometry x="2735" y="935" width="40" height="40" as="geometry" />
        </mxCell>
        <mxCell id="b0EkpMGophOQuvT-ORNH-103" value="QA1" style="whiteSpace=wrap;html=1;aspect=fixed;" vertex="1" parent="1">
          <mxGeometry x="2775" y="1065" width="40" height="40" as="geometry" />
        </mxCell>
        <mxCell id="b0EkpMGophOQuvT-ORNH-104" value="" style="rounded=0;whiteSpace=wrap;html=1;dashed=1;" vertex="1" parent="1">
          <mxGeometry x="2920" y="910" width="150" height="210" as="geometry" />
        </mxCell>
        <mxCell id="b0EkpMGophOQuvT-ORNH-105" value="D3" style="ellipse;whiteSpace=wrap;html=1;aspect=fixed;" vertex="1" parent="1">
          <mxGeometry x="2975" y="995" width="40" height="40" as="geometry" />
        </mxCell>
        <mxCell id="b0EkpMGophOQuvT-ORNH-106" value="D2" style="ellipse;whiteSpace=wrap;html=1;aspect=fixed;" vertex="1" parent="1">
          <mxGeometry x="3015" y="935" width="40" height="40" as="geometry" />
        </mxCell>
        <mxCell id="b0EkpMGophOQuvT-ORNH-107" value="D1" style="ellipse;whiteSpace=wrap;html=1;aspect=fixed;" vertex="1" parent="1">
          <mxGeometry x="2935" y="935" width="40" height="40" as="geometry" />
        </mxCell>
        <mxCell id="b0EkpMGophOQuvT-ORNH-108" value="QA1" style="whiteSpace=wrap;html=1;aspect=fixed;" vertex="1" parent="1">
          <mxGeometry x="2975" y="1065" width="40" height="40" as="geometry" />
        </mxCell>
        <mxCell id="b0EkpMGophOQuvT-ORNH-109" value="" style="triangle;whiteSpace=wrap;html=1;rotation=-90;" vertex="1" parent="1">
          <mxGeometry x="2767.5" y="810" width="37.5" height="42.5" as="geometry" />
        </mxCell>
        <mxCell id="b0EkpMGophOQuvT-ORNH-110" value="Em1" style="text;html=1;align=center;verticalAlign=middle;whiteSpace=wrap;rounded=0;" vertex="1" parent="1">
          <mxGeometry x="2810" y="810" width="60" height="30" as="geometry" />
        </mxCell>
        <mxCell id="b0EkpMGophOQuvT-ORNH-111" value="" style="rounded=0;whiteSpace=wrap;html=1;dashed=1;" vertex="1" parent="1">
          <mxGeometry x="3130" y="900" width="150" height="210" as="geometry" />
        </mxCell>
        <mxCell id="b0EkpMGophOQuvT-ORNH-112" value="D3" style="ellipse;whiteSpace=wrap;html=1;aspect=fixed;" vertex="1" parent="1">
          <mxGeometry x="3185" y="985" width="40" height="40" as="geometry" />
        </mxCell>
        <mxCell id="b0EkpMGophOQuvT-ORNH-113" value="D2" style="ellipse;whiteSpace=wrap;html=1;aspect=fixed;" vertex="1" parent="1">
          <mxGeometry x="3225" y="925" width="40" height="40" as="geometry" />
        </mxCell>
        <mxCell id="b0EkpMGophOQuvT-ORNH-114" value="D1" style="ellipse;whiteSpace=wrap;html=1;aspect=fixed;" vertex="1" parent="1">
          <mxGeometry x="3145" y="925" width="40" height="40" as="geometry" />
        </mxCell>
        <mxCell id="b0EkpMGophOQuvT-ORNH-115" value="QA1" style="whiteSpace=wrap;html=1;aspect=fixed;" vertex="1" parent="1">
          <mxGeometry x="3185" y="1055" width="40" height="40" as="geometry" />
        </mxCell>
        <mxCell id="b0EkpMGophOQuvT-ORNH-116" value="" style="rounded=0;whiteSpace=wrap;html=1;dashed=1;" vertex="1" parent="1">
          <mxGeometry x="3330" y="900" width="150" height="210" as="geometry" />
        </mxCell>
        <mxCell id="b0EkpMGophOQuvT-ORNH-117" value="D3" style="ellipse;whiteSpace=wrap;html=1;aspect=fixed;" vertex="1" parent="1">
          <mxGeometry x="3385" y="985" width="40" height="40" as="geometry" />
        </mxCell>
        <mxCell id="b0EkpMGophOQuvT-ORNH-118" value="D2" style="ellipse;whiteSpace=wrap;html=1;aspect=fixed;" vertex="1" parent="1">
          <mxGeometry x="3425" y="925" width="40" height="40" as="geometry" />
        </mxCell>
        <mxCell id="b0EkpMGophOQuvT-ORNH-119" value="D1" style="ellipse;whiteSpace=wrap;html=1;aspect=fixed;" vertex="1" parent="1">
          <mxGeometry x="3345" y="925" width="40" height="40" as="geometry" />
        </mxCell>
        <mxCell id="b0EkpMGophOQuvT-ORNH-120" value="QA1" style="whiteSpace=wrap;html=1;aspect=fixed;" vertex="1" parent="1">
          <mxGeometry x="3385" y="1055" width="40" height="40" as="geometry" />
        </mxCell>
        <mxCell id="b0EkpMGophOQuvT-ORNH-121" value="" style="rounded=0;whiteSpace=wrap;html=1;dashed=1;" vertex="1" parent="1">
          <mxGeometry x="3530" y="900" width="150" height="210" as="geometry" />
        </mxCell>
        <mxCell id="b0EkpMGophOQuvT-ORNH-122" value="D3" style="ellipse;whiteSpace=wrap;html=1;aspect=fixed;" vertex="1" parent="1">
          <mxGeometry x="3585" y="985" width="40" height="40" as="geometry" />
        </mxCell>
        <mxCell id="b0EkpMGophOQuvT-ORNH-123" value="D2" style="ellipse;whiteSpace=wrap;html=1;aspect=fixed;" vertex="1" parent="1">
          <mxGeometry x="3625" y="925" width="40" height="40" as="geometry" />
        </mxCell>
        <mxCell id="b0EkpMGophOQuvT-ORNH-124" value="D1" style="ellipse;whiteSpace=wrap;html=1;aspect=fixed;" vertex="1" parent="1">
          <mxGeometry x="3545" y="925" width="40" height="40" as="geometry" />
        </mxCell>
        <mxCell id="b0EkpMGophOQuvT-ORNH-125" value="QA1" style="whiteSpace=wrap;html=1;aspect=fixed;" vertex="1" parent="1">
          <mxGeometry x="3585" y="1055" width="40" height="40" as="geometry" />
        </mxCell>
        <mxCell id="b0EkpMGophOQuvT-ORNH-126" value="" style="triangle;whiteSpace=wrap;html=1;rotation=-90;" vertex="1" parent="1">
          <mxGeometry x="3377.5" y="800" width="37.5" height="42.5" as="geometry" />
        </mxCell>
        <mxCell id="b0EkpMGophOQuvT-ORNH-127" value="Em1" style="text;html=1;align=center;verticalAlign=middle;whiteSpace=wrap;rounded=0;" vertex="1" parent="1">
          <mxGeometry x="3420" y="800" width="60" height="30" as="geometry" />
        </mxCell>
        <mxCell id="b0EkpMGophOQuvT-ORNH-128" value="Director1" style="rhombus;whiteSpace=wrap;html=1;" vertex="1" parent="1">
          <mxGeometry x="2746.25" y="620" width="80" height="80" as="geometry" />
        </mxCell>
        <mxCell id="b0EkpMGophOQuvT-ORNH-129" value="" style="endArrow=classic;startArrow=classic;html=1;rounded=0;exitX=1;exitY=0;exitDx=0;exitDy=0;entryX=0.089;entryY=0.04;entryDx=0;entryDy=0;entryPerimeter=0;" edge="1" parent="1" source="b0EkpMGophOQuvT-ORNH-77" target="b0EkpMGophOQuvT-ORNH-92">
          <mxGeometry width="50" height="50" relative="1" as="geometry">
            <mxPoint x="2730" y="700" as="sourcePoint" />
            <mxPoint x="2780" y="650" as="targetPoint" />
          </mxGeometry>
        </mxCell>
        <mxCell id="b0EkpMGophOQuvT-ORNH-130" value="" style="endArrow=classic;startArrow=classic;html=1;rounded=0;exitX=0.5;exitY=0;exitDx=0;exitDy=0;entryX=0;entryY=0.5;entryDx=0;entryDy=0;" edge="1" parent="1" source="b0EkpMGophOQuvT-ORNH-82" target="b0EkpMGophOQuvT-ORNH-92">
          <mxGeometry width="50" height="50" relative="1" as="geometry">
            <mxPoint x="2730" y="700" as="sourcePoint" />
            <mxPoint x="2780" y="650" as="targetPoint" />
          </mxGeometry>
        </mxCell>
        <mxCell id="b0EkpMGophOQuvT-ORNH-131" value="" style="endArrow=classic;startArrow=classic;html=1;rounded=0;exitX=0;exitY=0;exitDx=0;exitDy=0;entryX=0.058;entryY=0.982;entryDx=0;entryDy=0;entryPerimeter=0;" edge="1" parent="1" source="b0EkpMGophOQuvT-ORNH-87" target="b0EkpMGophOQuvT-ORNH-92">
          <mxGeometry width="50" height="50" relative="1" as="geometry">
            <mxPoint x="2730" y="700" as="sourcePoint" />
            <mxPoint x="2780" y="650" as="targetPoint" />
          </mxGeometry>
        </mxCell>
        <mxCell id="b0EkpMGophOQuvT-ORNH-132" value="" style="endArrow=classic;startArrow=classic;html=1;rounded=0;exitX=1;exitY=0;exitDx=0;exitDy=0;entryX=0.042;entryY=0.04;entryDx=0;entryDy=0;entryPerimeter=0;" edge="1" parent="1" source="b0EkpMGophOQuvT-ORNH-94" target="b0EkpMGophOQuvT-ORNH-109">
          <mxGeometry width="50" height="50" relative="1" as="geometry">
            <mxPoint x="2730" y="700" as="sourcePoint" />
            <mxPoint x="2780" y="650" as="targetPoint" />
          </mxGeometry>
        </mxCell>
        <mxCell id="b0EkpMGophOQuvT-ORNH-133" value="" style="endArrow=classic;startArrow=classic;html=1;rounded=0;entryX=0;entryY=0.5;entryDx=0;entryDy=0;" edge="1" parent="1" source="b0EkpMGophOQuvT-ORNH-99" target="b0EkpMGophOQuvT-ORNH-109">
          <mxGeometry width="50" height="50" relative="1" as="geometry">
            <mxPoint x="2730" y="700" as="sourcePoint" />
            <mxPoint x="2780" y="650" as="targetPoint" />
          </mxGeometry>
        </mxCell>
        <mxCell id="b0EkpMGophOQuvT-ORNH-134" value="" style="endArrow=classic;startArrow=classic;html=1;rounded=0;exitX=0;exitY=0;exitDx=0;exitDy=0;entryX=-0.004;entryY=0.938;entryDx=0;entryDy=0;entryPerimeter=0;" edge="1" parent="1" source="b0EkpMGophOQuvT-ORNH-104" target="b0EkpMGophOQuvT-ORNH-109">
          <mxGeometry width="50" height="50" relative="1" as="geometry">
            <mxPoint x="2730" y="700" as="sourcePoint" />
            <mxPoint x="2810" y="850" as="targetPoint" />
          </mxGeometry>
        </mxCell>
        <mxCell id="b0EkpMGophOQuvT-ORNH-135" value="" style="endArrow=classic;startArrow=classic;html=1;rounded=0;exitX=1;exitY=0;exitDx=0;exitDy=0;entryX=0.093;entryY=0.094;entryDx=0;entryDy=0;entryPerimeter=0;" edge="1" parent="1" source="b0EkpMGophOQuvT-ORNH-111" target="b0EkpMGophOQuvT-ORNH-126">
          <mxGeometry width="50" height="50" relative="1" as="geometry">
            <mxPoint x="2720" y="690" as="sourcePoint" />
            <mxPoint x="2770" y="640" as="targetPoint" />
          </mxGeometry>
        </mxCell>
        <mxCell id="b0EkpMGophOQuvT-ORNH-136" value="" style="endArrow=classic;startArrow=classic;html=1;rounded=0;exitX=0.5;exitY=0;exitDx=0;exitDy=0;entryX=0;entryY=0.5;entryDx=0;entryDy=0;" edge="1" parent="1" source="b0EkpMGophOQuvT-ORNH-116" target="b0EkpMGophOQuvT-ORNH-126">
          <mxGeometry width="50" height="50" relative="1" as="geometry">
            <mxPoint x="2720" y="690" as="sourcePoint" />
            <mxPoint x="2770" y="640" as="targetPoint" />
          </mxGeometry>
        </mxCell>
        <mxCell id="b0EkpMGophOQuvT-ORNH-137" value="" style="endArrow=classic;startArrow=classic;html=1;rounded=0;exitX=0;exitY=0;exitDx=0;exitDy=0;entryX=0.2;entryY=0.871;entryDx=0;entryDy=0;entryPerimeter=0;" edge="1" parent="1" source="b0EkpMGophOQuvT-ORNH-121" target="b0EkpMGophOQuvT-ORNH-126">
          <mxGeometry width="50" height="50" relative="1" as="geometry">
            <mxPoint x="2720" y="690" as="sourcePoint" />
            <mxPoint x="2770" y="640" as="targetPoint" />
          </mxGeometry>
        </mxCell>
        <mxCell id="b0EkpMGophOQuvT-ORNH-138" value="" style="endArrow=classic;startArrow=classic;html=1;rounded=0;exitX=1;exitY=0.5;exitDx=0;exitDy=0;entryX=0;entryY=0.5;entryDx=0;entryDy=0;" edge="1" parent="1" source="b0EkpMGophOQuvT-ORNH-92" target="b0EkpMGophOQuvT-ORNH-128">
          <mxGeometry width="50" height="50" relative="1" as="geometry">
            <mxPoint x="2720" y="690" as="sourcePoint" />
            <mxPoint x="2770" y="640" as="targetPoint" />
          </mxGeometry>
        </mxCell>
        <mxCell id="b0EkpMGophOQuvT-ORNH-139" value="" style="endArrow=classic;startArrow=classic;html=1;rounded=0;exitX=1;exitY=0.5;exitDx=0;exitDy=0;entryX=0.5;entryY=1;entryDx=0;entryDy=0;" edge="1" parent="1" source="b0EkpMGophOQuvT-ORNH-109" target="b0EkpMGophOQuvT-ORNH-128">
          <mxGeometry width="50" height="50" relative="1" as="geometry">
            <mxPoint x="2720" y="690" as="sourcePoint" />
            <mxPoint x="2770" y="640" as="targetPoint" />
          </mxGeometry>
        </mxCell>
        <mxCell id="b0EkpMGophOQuvT-ORNH-140" value="" style="endArrow=classic;startArrow=classic;html=1;rounded=0;exitX=1;exitY=0.5;exitDx=0;exitDy=0;entryX=1;entryY=0.5;entryDx=0;entryDy=0;" edge="1" parent="1" source="b0EkpMGophOQuvT-ORNH-126" target="b0EkpMGophOQuvT-ORNH-128">
          <mxGeometry width="50" height="50" relative="1" as="geometry">
            <mxPoint x="2720" y="690" as="sourcePoint" />
            <mxPoint x="2770" y="640" as="targetPoint" />
          </mxGeometry>
        </mxCell>
        <mxCell id="b0EkpMGophOQuvT-ORNH-141" value="" style="rounded=0;whiteSpace=wrap;html=1;dashed=1;" vertex="1" parent="1">
          <mxGeometry x="3730" y="900" width="150" height="210" as="geometry" />
        </mxCell>
        <mxCell id="b0EkpMGophOQuvT-ORNH-142" value="D3" style="ellipse;whiteSpace=wrap;html=1;aspect=fixed;" vertex="1" parent="1">
          <mxGeometry x="3785" y="985" width="40" height="40" as="geometry" />
        </mxCell>
        <mxCell id="b0EkpMGophOQuvT-ORNH-143" value="D2" style="ellipse;whiteSpace=wrap;html=1;aspect=fixed;" vertex="1" parent="1">
          <mxGeometry x="3825" y="925" width="40" height="40" as="geometry" />
        </mxCell>
        <mxCell id="b0EkpMGophOQuvT-ORNH-144" value="D1" style="ellipse;whiteSpace=wrap;html=1;aspect=fixed;" vertex="1" parent="1">
          <mxGeometry x="3745" y="925" width="40" height="40" as="geometry" />
        </mxCell>
        <mxCell id="b0EkpMGophOQuvT-ORNH-145" value="QA1" style="whiteSpace=wrap;html=1;aspect=fixed;" vertex="1" parent="1">
          <mxGeometry x="3785" y="1055" width="40" height="40" as="geometry" />
        </mxCell>
        <mxCell id="b0EkpMGophOQuvT-ORNH-146" value="" style="rounded=0;whiteSpace=wrap;html=1;dashed=1;" vertex="1" parent="1">
          <mxGeometry x="3930" y="900" width="150" height="210" as="geometry" />
        </mxCell>
        <mxCell id="b0EkpMGophOQuvT-ORNH-147" value="D3" style="ellipse;whiteSpace=wrap;html=1;aspect=fixed;" vertex="1" parent="1">
          <mxGeometry x="3985" y="985" width="40" height="40" as="geometry" />
        </mxCell>
        <mxCell id="b0EkpMGophOQuvT-ORNH-148" value="D2" style="ellipse;whiteSpace=wrap;html=1;aspect=fixed;" vertex="1" parent="1">
          <mxGeometry x="4025" y="925" width="40" height="40" as="geometry" />
        </mxCell>
        <mxCell id="b0EkpMGophOQuvT-ORNH-149" value="D1" style="ellipse;whiteSpace=wrap;html=1;aspect=fixed;" vertex="1" parent="1">
          <mxGeometry x="3945" y="925" width="40" height="40" as="geometry" />
        </mxCell>
        <mxCell id="b0EkpMGophOQuvT-ORNH-150" value="QA1" style="whiteSpace=wrap;html=1;aspect=fixed;" vertex="1" parent="1">
          <mxGeometry x="3985" y="1055" width="40" height="40" as="geometry" />
        </mxCell>
        <mxCell id="b0EkpMGophOQuvT-ORNH-151" value="" style="rounded=0;whiteSpace=wrap;html=1;dashed=1;" vertex="1" parent="1">
          <mxGeometry x="4130" y="900" width="150" height="210" as="geometry" />
        </mxCell>
        <mxCell id="b0EkpMGophOQuvT-ORNH-152" value="D3" style="ellipse;whiteSpace=wrap;html=1;aspect=fixed;" vertex="1" parent="1">
          <mxGeometry x="4185" y="985" width="40" height="40" as="geometry" />
        </mxCell>
        <mxCell id="b0EkpMGophOQuvT-ORNH-153" value="D2" style="ellipse;whiteSpace=wrap;html=1;aspect=fixed;" vertex="1" parent="1">
          <mxGeometry x="4225" y="925" width="40" height="40" as="geometry" />
        </mxCell>
        <mxCell id="b0EkpMGophOQuvT-ORNH-154" value="D1" style="ellipse;whiteSpace=wrap;html=1;aspect=fixed;" vertex="1" parent="1">
          <mxGeometry x="4145" y="925" width="40" height="40" as="geometry" />
        </mxCell>
        <mxCell id="b0EkpMGophOQuvT-ORNH-155" value="QA1" style="whiteSpace=wrap;html=1;aspect=fixed;" vertex="1" parent="1">
          <mxGeometry x="4185" y="1055" width="40" height="40" as="geometry" />
        </mxCell>
        <mxCell id="b0EkpMGophOQuvT-ORNH-156" value="" style="triangle;whiteSpace=wrap;html=1;rotation=-90;" vertex="1" parent="1">
          <mxGeometry x="3977.5" y="800" width="37.5" height="42.5" as="geometry" />
        </mxCell>
        <mxCell id="b0EkpMGophOQuvT-ORNH-157" value="Em1" style="text;html=1;align=center;verticalAlign=middle;whiteSpace=wrap;rounded=0;" vertex="1" parent="1">
          <mxGeometry x="4020" y="800" width="60" height="30" as="geometry" />
        </mxCell>
        <mxCell id="b0EkpMGophOQuvT-ORNH-158" value="" style="rounded=0;whiteSpace=wrap;html=1;dashed=1;" vertex="1" parent="1">
          <mxGeometry x="4350" y="910" width="150" height="210" as="geometry" />
        </mxCell>
        <mxCell id="b0EkpMGophOQuvT-ORNH-159" value="D3" style="ellipse;whiteSpace=wrap;html=1;aspect=fixed;" vertex="1" parent="1">
          <mxGeometry x="4405" y="995" width="40" height="40" as="geometry" />
        </mxCell>
        <mxCell id="b0EkpMGophOQuvT-ORNH-160" value="D2" style="ellipse;whiteSpace=wrap;html=1;aspect=fixed;" vertex="1" parent="1">
          <mxGeometry x="4445" y="935" width="40" height="40" as="geometry" />
        </mxCell>
        <mxCell id="b0EkpMGophOQuvT-ORNH-161" value="D1" style="ellipse;whiteSpace=wrap;html=1;aspect=fixed;" vertex="1" parent="1">
          <mxGeometry x="4365" y="935" width="40" height="40" as="geometry" />
        </mxCell>
        <mxCell id="b0EkpMGophOQuvT-ORNH-162" value="QA1" style="whiteSpace=wrap;html=1;aspect=fixed;" vertex="1" parent="1">
          <mxGeometry x="4405" y="1065" width="40" height="40" as="geometry" />
        </mxCell>
        <mxCell id="b0EkpMGophOQuvT-ORNH-163" value="" style="rounded=0;whiteSpace=wrap;html=1;dashed=1;" vertex="1" parent="1">
          <mxGeometry x="4550" y="910" width="150" height="210" as="geometry" />
        </mxCell>
        <mxCell id="b0EkpMGophOQuvT-ORNH-164" value="D3" style="ellipse;whiteSpace=wrap;html=1;aspect=fixed;" vertex="1" parent="1">
          <mxGeometry x="4605" y="995" width="40" height="40" as="geometry" />
        </mxCell>
        <mxCell id="b0EkpMGophOQuvT-ORNH-165" value="D2" style="ellipse;whiteSpace=wrap;html=1;aspect=fixed;" vertex="1" parent="1">
          <mxGeometry x="4645" y="935" width="40" height="40" as="geometry" />
        </mxCell>
        <mxCell id="b0EkpMGophOQuvT-ORNH-166" value="D1" style="ellipse;whiteSpace=wrap;html=1;aspect=fixed;" vertex="1" parent="1">
          <mxGeometry x="4565" y="935" width="40" height="40" as="geometry" />
        </mxCell>
        <mxCell id="b0EkpMGophOQuvT-ORNH-167" value="QA1" style="whiteSpace=wrap;html=1;aspect=fixed;" vertex="1" parent="1">
          <mxGeometry x="4605" y="1065" width="40" height="40" as="geometry" />
        </mxCell>
        <mxCell id="b0EkpMGophOQuvT-ORNH-168" value="" style="rounded=0;whiteSpace=wrap;html=1;dashed=1;" vertex="1" parent="1">
          <mxGeometry x="4750" y="910" width="150" height="210" as="geometry" />
        </mxCell>
        <mxCell id="b0EkpMGophOQuvT-ORNH-169" value="D3" style="ellipse;whiteSpace=wrap;html=1;aspect=fixed;" vertex="1" parent="1">
          <mxGeometry x="4805" y="995" width="40" height="40" as="geometry" />
        </mxCell>
        <mxCell id="b0EkpMGophOQuvT-ORNH-170" value="D2" style="ellipse;whiteSpace=wrap;html=1;aspect=fixed;" vertex="1" parent="1">
          <mxGeometry x="4845" y="935" width="40" height="40" as="geometry" />
        </mxCell>
        <mxCell id="b0EkpMGophOQuvT-ORNH-171" value="D1" style="ellipse;whiteSpace=wrap;html=1;aspect=fixed;" vertex="1" parent="1">
          <mxGeometry x="4765" y="935" width="40" height="40" as="geometry" />
        </mxCell>
        <mxCell id="b0EkpMGophOQuvT-ORNH-172" value="QA1" style="whiteSpace=wrap;html=1;aspect=fixed;" vertex="1" parent="1">
          <mxGeometry x="4805" y="1065" width="40" height="40" as="geometry" />
        </mxCell>
        <mxCell id="b0EkpMGophOQuvT-ORNH-173" value="" style="triangle;whiteSpace=wrap;html=1;rotation=-90;" vertex="1" parent="1">
          <mxGeometry x="4597.5" y="810" width="37.5" height="42.5" as="geometry" />
        </mxCell>
        <mxCell id="b0EkpMGophOQuvT-ORNH-174" value="Em1" style="text;html=1;align=center;verticalAlign=middle;whiteSpace=wrap;rounded=0;" vertex="1" parent="1">
          <mxGeometry x="4640" y="810" width="60" height="30" as="geometry" />
        </mxCell>
        <mxCell id="b0EkpMGophOQuvT-ORNH-175" value="" style="rounded=0;whiteSpace=wrap;html=1;dashed=1;" vertex="1" parent="1">
          <mxGeometry x="4960" y="900" width="150" height="210" as="geometry" />
        </mxCell>
        <mxCell id="b0EkpMGophOQuvT-ORNH-176" value="D3" style="ellipse;whiteSpace=wrap;html=1;aspect=fixed;" vertex="1" parent="1">
          <mxGeometry x="5015" y="985" width="40" height="40" as="geometry" />
        </mxCell>
        <mxCell id="b0EkpMGophOQuvT-ORNH-177" value="D2" style="ellipse;whiteSpace=wrap;html=1;aspect=fixed;" vertex="1" parent="1">
          <mxGeometry x="5055" y="925" width="40" height="40" as="geometry" />
        </mxCell>
        <mxCell id="b0EkpMGophOQuvT-ORNH-178" value="D1" style="ellipse;whiteSpace=wrap;html=1;aspect=fixed;" vertex="1" parent="1">
          <mxGeometry x="4975" y="925" width="40" height="40" as="geometry" />
        </mxCell>
        <mxCell id="b0EkpMGophOQuvT-ORNH-179" value="QA1" style="whiteSpace=wrap;html=1;aspect=fixed;" vertex="1" parent="1">
          <mxGeometry x="5015" y="1055" width="40" height="40" as="geometry" />
        </mxCell>
        <mxCell id="b0EkpMGophOQuvT-ORNH-180" value="" style="rounded=0;whiteSpace=wrap;html=1;dashed=1;" vertex="1" parent="1">
          <mxGeometry x="5160" y="900" width="150" height="210" as="geometry" />
        </mxCell>
        <mxCell id="b0EkpMGophOQuvT-ORNH-181" value="D3" style="ellipse;whiteSpace=wrap;html=1;aspect=fixed;" vertex="1" parent="1">
          <mxGeometry x="5215" y="985" width="40" height="40" as="geometry" />
        </mxCell>
        <mxCell id="b0EkpMGophOQuvT-ORNH-182" value="D2" style="ellipse;whiteSpace=wrap;html=1;aspect=fixed;" vertex="1" parent="1">
          <mxGeometry x="5255" y="925" width="40" height="40" as="geometry" />
        </mxCell>
        <mxCell id="b0EkpMGophOQuvT-ORNH-183" value="D1" style="ellipse;whiteSpace=wrap;html=1;aspect=fixed;" vertex="1" parent="1">
          <mxGeometry x="5175" y="925" width="40" height="40" as="geometry" />
        </mxCell>
        <mxCell id="b0EkpMGophOQuvT-ORNH-184" value="QA1" style="whiteSpace=wrap;html=1;aspect=fixed;" vertex="1" parent="1">
          <mxGeometry x="5215" y="1055" width="40" height="40" as="geometry" />
        </mxCell>
        <mxCell id="b0EkpMGophOQuvT-ORNH-185" value="" style="rounded=0;whiteSpace=wrap;html=1;dashed=1;" vertex="1" parent="1">
          <mxGeometry x="5360" y="900" width="150" height="210" as="geometry" />
        </mxCell>
        <mxCell id="b0EkpMGophOQuvT-ORNH-186" value="D3" style="ellipse;whiteSpace=wrap;html=1;aspect=fixed;" vertex="1" parent="1">
          <mxGeometry x="5415" y="985" width="40" height="40" as="geometry" />
        </mxCell>
        <mxCell id="b0EkpMGophOQuvT-ORNH-187" value="D2" style="ellipse;whiteSpace=wrap;html=1;aspect=fixed;" vertex="1" parent="1">
          <mxGeometry x="5455" y="925" width="40" height="40" as="geometry" />
        </mxCell>
        <mxCell id="b0EkpMGophOQuvT-ORNH-188" value="D1" style="ellipse;whiteSpace=wrap;html=1;aspect=fixed;" vertex="1" parent="1">
          <mxGeometry x="5375" y="925" width="40" height="40" as="geometry" />
        </mxCell>
        <mxCell id="b0EkpMGophOQuvT-ORNH-189" value="QA1" style="whiteSpace=wrap;html=1;aspect=fixed;" vertex="1" parent="1">
          <mxGeometry x="5415" y="1055" width="40" height="40" as="geometry" />
        </mxCell>
        <mxCell id="b0EkpMGophOQuvT-ORNH-190" value="" style="triangle;whiteSpace=wrap;html=1;rotation=-90;" vertex="1" parent="1">
          <mxGeometry x="5207.5" y="800" width="37.5" height="42.5" as="geometry" />
        </mxCell>
        <mxCell id="b0EkpMGophOQuvT-ORNH-191" value="Em1" style="text;html=1;align=center;verticalAlign=middle;whiteSpace=wrap;rounded=0;" vertex="1" parent="1">
          <mxGeometry x="5250" y="800" width="60" height="30" as="geometry" />
        </mxCell>
        <mxCell id="b0EkpMGophOQuvT-ORNH-192" value="Director1" style="rhombus;whiteSpace=wrap;html=1;" vertex="1" parent="1">
          <mxGeometry x="4576.25" y="620" width="80" height="80" as="geometry" />
        </mxCell>
        <mxCell id="b0EkpMGophOQuvT-ORNH-193" value="" style="endArrow=classic;startArrow=classic;html=1;rounded=0;exitX=1;exitY=0;exitDx=0;exitDy=0;entryX=0.089;entryY=0.04;entryDx=0;entryDy=0;entryPerimeter=0;" edge="1" parent="1" source="b0EkpMGophOQuvT-ORNH-141" target="b0EkpMGophOQuvT-ORNH-156">
          <mxGeometry width="50" height="50" relative="1" as="geometry">
            <mxPoint x="4560" y="700" as="sourcePoint" />
            <mxPoint x="4610" y="650" as="targetPoint" />
          </mxGeometry>
        </mxCell>
        <mxCell id="b0EkpMGophOQuvT-ORNH-194" value="" style="endArrow=classic;startArrow=classic;html=1;rounded=0;exitX=0.5;exitY=0;exitDx=0;exitDy=0;entryX=0;entryY=0.5;entryDx=0;entryDy=0;" edge="1" parent="1" source="b0EkpMGophOQuvT-ORNH-146" target="b0EkpMGophOQuvT-ORNH-156">
          <mxGeometry width="50" height="50" relative="1" as="geometry">
            <mxPoint x="4560" y="700" as="sourcePoint" />
            <mxPoint x="4610" y="650" as="targetPoint" />
          </mxGeometry>
        </mxCell>
        <mxCell id="b0EkpMGophOQuvT-ORNH-195" value="" style="endArrow=classic;startArrow=classic;html=1;rounded=0;exitX=0;exitY=0;exitDx=0;exitDy=0;entryX=0.058;entryY=0.982;entryDx=0;entryDy=0;entryPerimeter=0;" edge="1" parent="1" source="b0EkpMGophOQuvT-ORNH-151" target="b0EkpMGophOQuvT-ORNH-156">
          <mxGeometry width="50" height="50" relative="1" as="geometry">
            <mxPoint x="4560" y="700" as="sourcePoint" />
            <mxPoint x="4610" y="650" as="targetPoint" />
          </mxGeometry>
        </mxCell>
        <mxCell id="b0EkpMGophOQuvT-ORNH-196" value="" style="endArrow=classic;startArrow=classic;html=1;rounded=0;exitX=1;exitY=0;exitDx=0;exitDy=0;entryX=0.042;entryY=0.04;entryDx=0;entryDy=0;entryPerimeter=0;" edge="1" parent="1" source="b0EkpMGophOQuvT-ORNH-158" target="b0EkpMGophOQuvT-ORNH-173">
          <mxGeometry width="50" height="50" relative="1" as="geometry">
            <mxPoint x="4560" y="700" as="sourcePoint" />
            <mxPoint x="4610" y="650" as="targetPoint" />
          </mxGeometry>
        </mxCell>
        <mxCell id="b0EkpMGophOQuvT-ORNH-197" value="" style="endArrow=classic;startArrow=classic;html=1;rounded=0;entryX=0;entryY=0.5;entryDx=0;entryDy=0;" edge="1" parent="1" source="b0EkpMGophOQuvT-ORNH-163" target="b0EkpMGophOQuvT-ORNH-173">
          <mxGeometry width="50" height="50" relative="1" as="geometry">
            <mxPoint x="4560" y="700" as="sourcePoint" />
            <mxPoint x="4610" y="650" as="targetPoint" />
          </mxGeometry>
        </mxCell>
        <mxCell id="b0EkpMGophOQuvT-ORNH-198" value="" style="endArrow=classic;startArrow=classic;html=1;rounded=0;exitX=0;exitY=0;exitDx=0;exitDy=0;entryX=-0.004;entryY=0.938;entryDx=0;entryDy=0;entryPerimeter=0;" edge="1" parent="1" source="b0EkpMGophOQuvT-ORNH-168" target="b0EkpMGophOQuvT-ORNH-173">
          <mxGeometry width="50" height="50" relative="1" as="geometry">
            <mxPoint x="4560" y="700" as="sourcePoint" />
            <mxPoint x="4640" y="850" as="targetPoint" />
          </mxGeometry>
        </mxCell>
        <mxCell id="b0EkpMGophOQuvT-ORNH-199" value="" style="endArrow=classic;startArrow=classic;html=1;rounded=0;exitX=1;exitY=0;exitDx=0;exitDy=0;entryX=0.093;entryY=0.094;entryDx=0;entryDy=0;entryPerimeter=0;" edge="1" parent="1" source="b0EkpMGophOQuvT-ORNH-175" target="b0EkpMGophOQuvT-ORNH-190">
          <mxGeometry width="50" height="50" relative="1" as="geometry">
            <mxPoint x="4550" y="690" as="sourcePoint" />
            <mxPoint x="4600" y="640" as="targetPoint" />
          </mxGeometry>
        </mxCell>
        <mxCell id="b0EkpMGophOQuvT-ORNH-200" value="" style="endArrow=classic;startArrow=classic;html=1;rounded=0;exitX=0.5;exitY=0;exitDx=0;exitDy=0;entryX=0;entryY=0.5;entryDx=0;entryDy=0;" edge="1" parent="1" source="b0EkpMGophOQuvT-ORNH-180" target="b0EkpMGophOQuvT-ORNH-190">
          <mxGeometry width="50" height="50" relative="1" as="geometry">
            <mxPoint x="4550" y="690" as="sourcePoint" />
            <mxPoint x="4600" y="640" as="targetPoint" />
          </mxGeometry>
        </mxCell>
        <mxCell id="b0EkpMGophOQuvT-ORNH-201" value="" style="endArrow=classic;startArrow=classic;html=1;rounded=0;exitX=0;exitY=0;exitDx=0;exitDy=0;entryX=0.2;entryY=0.871;entryDx=0;entryDy=0;entryPerimeter=0;" edge="1" parent="1" source="b0EkpMGophOQuvT-ORNH-185" target="b0EkpMGophOQuvT-ORNH-190">
          <mxGeometry width="50" height="50" relative="1" as="geometry">
            <mxPoint x="4550" y="690" as="sourcePoint" />
            <mxPoint x="4600" y="640" as="targetPoint" />
          </mxGeometry>
        </mxCell>
        <mxCell id="b0EkpMGophOQuvT-ORNH-202" value="" style="endArrow=classic;startArrow=classic;html=1;rounded=0;exitX=1;exitY=0.5;exitDx=0;exitDy=0;entryX=0;entryY=0.5;entryDx=0;entryDy=0;" edge="1" parent="1" source="b0EkpMGophOQuvT-ORNH-156" target="b0EkpMGophOQuvT-ORNH-192">
          <mxGeometry width="50" height="50" relative="1" as="geometry">
            <mxPoint x="4550" y="690" as="sourcePoint" />
            <mxPoint x="4600" y="640" as="targetPoint" />
          </mxGeometry>
        </mxCell>
        <mxCell id="b0EkpMGophOQuvT-ORNH-203" value="" style="endArrow=classic;startArrow=classic;html=1;rounded=0;exitX=1;exitY=0.5;exitDx=0;exitDy=0;entryX=0.5;entryY=1;entryDx=0;entryDy=0;" edge="1" parent="1" source="b0EkpMGophOQuvT-ORNH-173" target="b0EkpMGophOQuvT-ORNH-192">
          <mxGeometry width="50" height="50" relative="1" as="geometry">
            <mxPoint x="4550" y="690" as="sourcePoint" />
            <mxPoint x="4600" y="640" as="targetPoint" />
          </mxGeometry>
        </mxCell>
        <mxCell id="b0EkpMGophOQuvT-ORNH-204" value="" style="endArrow=classic;startArrow=classic;html=1;rounded=0;exitX=1;exitY=0.5;exitDx=0;exitDy=0;entryX=1;entryY=0.5;entryDx=0;entryDy=0;" edge="1" parent="1" source="b0EkpMGophOQuvT-ORNH-190" target="b0EkpMGophOQuvT-ORNH-192">
          <mxGeometry width="50" height="50" relative="1" as="geometry">
            <mxPoint x="4550" y="690" as="sourcePoint" />
            <mxPoint x="4600" y="640" as="targetPoint" />
          </mxGeometry>
        </mxCell>
        <mxCell id="b0EkpMGophOQuvT-ORNH-205" value="SDr1" style="shape=hexagon;perimeter=hexagonPerimeter2;whiteSpace=wrap;html=1;fixedSize=1;" vertex="1" parent="1">
          <mxGeometry x="2726.25" y="300" width="120" height="80" as="geometry" />
        </mxCell>
        <mxCell id="b0EkpMGophOQuvT-ORNH-206" value="" style="endArrow=classic;startArrow=classic;html=1;rounded=0;exitX=0.5;exitY=0;exitDx=0;exitDy=0;entryX=0;entryY=0.5;entryDx=0;entryDy=0;" edge="1" parent="1" source="b0EkpMGophOQuvT-ORNH-64" target="b0EkpMGophOQuvT-ORNH-205">
          <mxGeometry width="50" height="50" relative="1" as="geometry">
            <mxPoint x="2180" y="600" as="sourcePoint" />
            <mxPoint x="2230" y="550" as="targetPoint" />
          </mxGeometry>
        </mxCell>
        <mxCell id="b0EkpMGophOQuvT-ORNH-207" value="" style="endArrow=classic;startArrow=classic;html=1;rounded=0;exitX=0.5;exitY=0;exitDx=0;exitDy=0;entryX=0.5;entryY=1;entryDx=0;entryDy=0;" edge="1" parent="1" source="b0EkpMGophOQuvT-ORNH-128" target="b0EkpMGophOQuvT-ORNH-205">
          <mxGeometry width="50" height="50" relative="1" as="geometry">
            <mxPoint x="2180" y="600" as="sourcePoint" />
            <mxPoint x="2230" y="550" as="targetPoint" />
          </mxGeometry>
        </mxCell>
        <mxCell id="b0EkpMGophOQuvT-ORNH-208" value="" style="endArrow=classic;startArrow=classic;html=1;rounded=0;exitX=0.5;exitY=0;exitDx=0;exitDy=0;entryX=1;entryY=0.5;entryDx=0;entryDy=0;" edge="1" parent="1" source="b0EkpMGophOQuvT-ORNH-192" target="b0EkpMGophOQuvT-ORNH-205">
          <mxGeometry width="50" height="50" relative="1" as="geometry">
            <mxPoint x="2180" y="600" as="sourcePoint" />
            <mxPoint x="2230" y="550" as="targetPoint" />
          </mxGeometry>
        </mxCell>
        <mxCell id="b0EkpMGophOQuvT-ORNH-209" value="&lt;font style=&quot;font-size: 55px;&quot;&gt;108 Eng&lt;/font&gt;&lt;div&gt;&lt;font style=&quot;font-size: 55px;&quot;&gt;13 M&lt;/font&gt;&lt;/div&gt;&lt;div&gt;&lt;font style=&quot;font-size: 55px;&quot;&gt;~1:12&lt;/font&gt;&lt;/div&gt;&lt;div&gt;&lt;br&gt;&lt;/div&gt;" style="text;html=1;align=center;verticalAlign=middle;whiteSpace=wrap;rounded=0;" vertex="1" parent="1">
          <mxGeometry x="380" y="160" width="440" height="300" as="geometry" />
        </mxCell>
      </root>
    </mxGraphModel>
  </diagram>
</mxfile>
